<?xml version="1.0" standalone="no"?><!DOCTYPE svg PUBLIC "-//W3C//DTD SVG 1.1//EN" "http://www.w3.org/Graphics/SVG/1.1/DTD/svg11.dtd"><svg t="1766305723762" class="icon" viewBox="0 0 1024 1024" version="1.1" xmlns="http://www.w3.org/2000/svg" p-id="8090" xmlns:xlink="http://www.w3.org/1999/xlink" width="200" height="200"><path d="M512 385.6840625a126.3159375 126.3159375 0 1 0 0-252.631875 126.3159375 126.3159375 0 0 0 0 252.631875z m0 75.789375a202.1053125 202.1053125 0 1 1 0-404.210625 202.1053125 202.1053125 0 0 1 0 404.210625zM183.57875 890.9478125h656.8425V789.89375a202.1053125 202.1053125 0 0 0-202.10625-202.1053125H385.685a202.1053125 202.1053125 0 0 0-202.1053125 202.10625V890.946875zM385.685 512h252.6309375c153.4734375 0 277.89375 124.42125 277.89375 277.8946875v176.8425H107.7903125V789.89375C107.789375 636.42125 232.210625 512 385.6840625 512z" fill="#7A7E83" p-id="8091"></path></svg>